<svg viewBox="0 0 1600 900" xmlns="http://www.w3.org/2000/svg">
  <defs>
    <linearGradient id="sky2" x1="0" y1="0" x2="0" y2="1">
      <stop offset="0%" stop-color="#0a1a20"/>
      <stop offset="50%" stop-color="#23324f"/>
      <stop offset="100%" stop-color="#e07a9a" stop-opacity="0.35"/>
    </linearGradient>
    <linearGradient id="sea2" x1="0" y1="0" x2="0" y2="1">
      <stop offset="0%" stop-color="#1a5f66"/>
      <stop offset="100%" stop-color="#0a2f34"/>
    </linearGradient>
  </defs>
  <rect width="1600" height="900" fill="url(#sky2)"/>
  <circle cx="1250" cy="230" r="70" fill="#ffb648" opacity="0.85"/>
  <rect x="0" y="520" width="1600" height="380" fill="url(#sea2)"/>
  <g stroke="#7fe7db" stroke-opacity="0.22" stroke-width="3" fill="none">
    <path d="M0 560 Q 200 550 400 560 T 800 560 T 1200 560 T 1600 560"/>
    <path d="M0 610 Q 200 598 400 610 T 800 610 T 1200 610 T 1600 610"/>
  </g>
  <!-- bungalows on stilts, connected by a walkway -->
  <line x1="260" y1="560" x2="1360" y2="560" stroke="#0a2226" stroke-width="10"/>
  <g fill="#08181c">
    <!-- bungalow 1 -->
    <rect x="300" y="470" width="130" height="90" rx="4"/>
    <path d="M290 470 L365 415 L440 470 Z"/>
    <line x1="330" y1="560" x2="330" y2="640" stroke="#08181c" stroke-width="8"/>
    <line x1="400" y1="560" x2="400" y2="640" stroke="#08181c" stroke-width="8"/>
    <!-- bungalow 2 -->
    <rect x="560" y="450" width="150" height="105" rx="4"/>
    <path d="M548 450 L635 388 L722 450 Z"/>
    <line x1="595" y1="555" x2="595" y2="650" stroke="#08181c" stroke-width="8"/>
    <line x1="680" y1="555" x2="680" y2="650" stroke="#08181c" stroke-width="8"/>
    <!-- bungalow 3 -->
    <rect x="860" y="465" width="135" height="92" rx="4"/>
    <path d="M850 465 L927 407 L1004 465 Z"/>
    <line x1="892" y1="557" x2="892" y2="642" stroke="#08181c" stroke-width="8"/>
    <line x1="962" y1="557" x2="962" y2="642" stroke="#08181c" stroke-width="8"/>
    <!-- bungalow 4 -->
    <rect x="1130" y="475" width="120" height="82" rx="4"/>
    <path d="M1122 475 L1190 422 L1258 475 Z"/>
    <line x1="1155" y1="557" x2="1155" y2="636" stroke="#08181c" stroke-width="8"/>
    <line x1="1218" y1="557" x2="1218" y2="636" stroke="#08181c" stroke-width="8"/>
  </g>
  <g fill="#ffb648">
    <circle cx="365" cy="520" r="4"/>
    <circle cx="635" cy="505" r="4"/>
    <circle cx="927" cy="512" r="4"/>
    <circle cx="1190" cy="518" r="4"/>
  </g>
  <g fill="#0a2f34" opacity="0.35">
    <rect x="300" y="562" width="130" height="30"/>
    <rect x="560" y="558" width="150" height="34"/>
    <rect x="860" y="560" width="135" height="30"/>
    <rect x="1130" y="560" width="120" height="26"/>
  </g>
</svg>
